# xmcd
#
# Track frame offsets: 
#        187
#        14065
#        27885
#        49832
#        64572
#        78282
#        94592
#        113545
#        131292
#        148262
#        166522
#
# Disc length: 2431 seconds
#
# Revision: 2
# Processed by: cddbd v1.4PL0 Copyright (c) Steve Scherf et al.
# Submitted via: ExactAudioCopy v0.90b3
#
DISCID=81097d0b
DTITLE=Dan Seals - Won't Be Blue Anymore
DYEAR=1900
DGENRE=Country
TTITLE0=Headin' West
TTITLE1=I Won't Be Blue Anymore
TTITLE2=Everything That Glitters (Is Not Gold)
TTITLE3=Tobacco Road
TTITLE4=Your Love
TTITLE5=You Plant Your Fields
TTITLE6=Still A Little Bit Of Love
TTITLE7=Meet Me In Montana
TTITLE8=Bop
TTITLE9=So Easy To Need
TTITLE10=City Kind Of Girl
EXTD=
EXTT0=
EXTT1=
EXTT2=
EXTT3=
EXTT4=
EXTT5=
EXTT6=
EXTT7=
EXTT8=
EXTT9=
EXTT10=
PLAYORDER=
